<?xml version="1.0" encoding="UTF-8" standalone="no"?>
<!DOCTYPE svg PUBLIC "-//W3C//DTD SVG 1.1//EN"
 "http://www.w3.org/Graphics/SVG/1.1/DTD/svg11.dtd">
<!-- Generated by graphviz version 2.43.0 (0)
 -->
<!-- Title: snakemake_dag Pages: 1 -->
<svg width="549pt" height="980pt"
 viewBox="0.00 0.00 549.00 980.00" xmlns="http://www.w3.org/2000/svg" xmlns:xlink="http://www.w3.org/1999/xlink">
<g id="graph0" class="graph" transform="scale(1 1) rotate(0) translate(4 976)">
<title>snakemake_dag</title>
<polygon fill="white" stroke="transparent" points="-4,4 -4,-976 545,-976 545,4 -4,4"/>
<!-- 1 -->
<g id="node1" class="node">
<title>1</title>
<path fill="none" stroke="#88d856" stroke-width="2" d="M160.5,-396C160.5,-396 125.5,-396 125.5,-396 119.5,-396 113.5,-390 113.5,-384 113.5,-384 113.5,-372 113.5,-372 113.5,-366 119.5,-360 125.5,-360 125.5,-360 160.5,-360 160.5,-360 166.5,-360 172.5,-366 172.5,-372 172.5,-372 172.5,-384 172.5,-384 172.5,-390 166.5,-396 160.5,-396"/>
<text text-anchor="middle" x="143" y="-375.5" font-family="sans" font-size="10.00">trinotate</text>
</g>
<!-- 16 -->
<g id="node16" class="node">
<title>16</title>
<path fill="none" stroke="#d6d856" stroke-width="2" d="M113.5,-324C113.5,-324 40.5,-324 40.5,-324 34.5,-324 28.5,-318 28.5,-312 28.5,-312 28.5,-300 28.5,-300 28.5,-294 34.5,-288 40.5,-288 40.5,-288 113.5,-288 113.5,-288 119.5,-288 125.5,-294 125.5,-300 125.5,-300 125.5,-312 125.5,-312 125.5,-318 119.5,-324 113.5,-324"/>
<text text-anchor="middle" x="77" y="-303.5" font-family="sans" font-size="10.00">group_blast_hits</text>
</g>
<!-- 1&#45;&gt;16 -->
<g id="edge23" class="edge">
<title>1&#45;&gt;16</title>
<path fill="none" stroke="grey" stroke-width="2" d="M126.69,-359.7C118.69,-351.22 108.93,-340.86 100.18,-331.58"/>
<polygon fill="grey" stroke="grey" stroke-width="2" points="102.53,-328.98 93.13,-324.1 97.44,-333.78 102.53,-328.98"/>
</g>
<!-- 17 -->
<g id="node17" class="node">
<title>17</title>
<path fill="none" stroke="#56d873" stroke-width="2" d="M246,-324C246,-324 156,-324 156,-324 150,-324 144,-318 144,-312 144,-312 144,-300 144,-300 144,-294 150,-288 156,-288 156,-288 246,-288 246,-288 252,-288 258,-294 258,-300 258,-300 258,-312 258,-312 258,-318 252,-324 246,-324"/>
<text text-anchor="middle" x="201" y="-303.5" font-family="sans" font-size="10.00">add_blast_coverage</text>
</g>
<!-- 1&#45;&gt;17 -->
<g id="edge25" class="edge">
<title>1&#45;&gt;17</title>
<path fill="none" stroke="grey" stroke-width="2" d="M157.34,-359.7C164.29,-351.3 172.77,-341.07 180.4,-331.86"/>
<polygon fill="grey" stroke="grey" stroke-width="2" points="183.14,-334.04 186.83,-324.1 177.75,-329.57 183.14,-334.04"/>
</g>
<!-- 2 -->
<g id="node2" class="node">
<title>2</title>
<path fill="none" stroke="#5673d8" stroke-width="2" d="M301,-468C301,-468 271,-468 271,-468 265,-468 259,-462 259,-456 259,-456 259,-444 259,-444 259,-438 265,-432 271,-432 271,-432 301,-432 301,-432 307,-432 313,-438 313,-444 313,-444 313,-456 313,-456 313,-462 307,-468 301,-468"/>
<text text-anchor="middle" x="286" y="-447.5" font-family="sans" font-size="10.00">trinity</text>
</g>
<!-- 2&#45;&gt;1 -->
<g id="edge1" class="edge">
<title>2&#45;&gt;1</title>
<path fill="none" stroke="grey" stroke-width="2" d="M258.77,-435.67C236.92,-424.98 205.99,-409.83 181.59,-397.89"/>
<polygon fill="grey" stroke="grey" stroke-width="2" points="183.12,-394.74 172.6,-393.49 180.04,-401.03 183.12,-394.74"/>
</g>
<!-- 11 -->
<g id="node11" class="node">
<title>11</title>
<path fill="none" stroke="#56d8d8" stroke-width="2" d="M187.5,-108C187.5,-108 124.5,-108 124.5,-108 118.5,-108 112.5,-102 112.5,-96 112.5,-96 112.5,-84 112.5,-84 112.5,-78 118.5,-72 124.5,-72 124.5,-72 187.5,-72 187.5,-72 193.5,-72 199.5,-78 199.5,-84 199.5,-84 199.5,-96 199.5,-96 199.5,-102 193.5,-108 187.5,-108"/>
<text text-anchor="middle" x="156" y="-87.5" font-family="sans" font-size="10.00">filter_isoforms</text>
</g>
<!-- 2&#45;&gt;11 -->
<g id="edge12" class="edge">
<title>2&#45;&gt;11</title>
<path fill="none" stroke="grey" stroke-width="2" d="M258.84,-448.01C187.45,-443.82 0,-421.89 0,-307 0,-307 0,-307 0,-233 0,-175.61 58.45,-135.27 103.8,-112.62"/>
<polygon fill="grey" stroke="grey" stroke-width="2" points="105.48,-115.69 112.96,-108.18 102.43,-109.39 105.48,-115.69"/>
</g>
<!-- 12 -->
<g id="node12" class="node">
<title>12</title>
<path fill="none" stroke="#d8bc56" stroke-width="2" d="M343,-180C343,-180 281,-180 281,-180 275,-180 269,-174 269,-168 269,-168 269,-156 269,-156 269,-150 275,-144 281,-144 281,-144 343,-144 343,-144 349,-144 355,-150 355,-156 355,-156 355,-168 355,-168 355,-174 349,-180 343,-180"/>
<text text-anchor="middle" x="312" y="-159.5" font-family="sans" font-size="10.00">transcripts_by</text>
</g>
<!-- 2&#45;&gt;12 -->
<g id="edge14" class="edge">
<title>2&#45;&gt;12</title>
<path fill="none" stroke="grey" stroke-width="2" d="M274.11,-431.72C267.99,-421.76 261.16,-408.73 258,-396 254.15,-380.47 255.87,-375.86 258,-360 259.15,-351.45 289.75,-242.07 304.37,-190.09"/>
<polygon fill="grey" stroke="grey" stroke-width="2" points="307.81,-190.79 307.15,-180.22 301.07,-188.89 307.81,-190.79"/>
</g>
<!-- 13 -->
<g id="node13" class="node">
<title>13</title>
<path fill="none" stroke="#59d856" stroke-width="2" d="M425,-324C425,-324 345,-324 345,-324 339,-324 333,-318 333,-312 333,-312 333,-300 333,-300 333,-294 339,-288 345,-288 345,-288 425,-288 425,-288 431,-288 437,-294 437,-300 437,-300 437,-312 437,-312 437,-318 431,-324 425,-324"/>
<text text-anchor="middle" x="385" y="-303.5" font-family="sans" font-size="10.00">trinity_abundance</text>
</g>
<!-- 2&#45;&gt;13 -->
<g id="edge17" class="edge">
<title>2&#45;&gt;13</title>
<path fill="none" stroke="grey" stroke-width="2" d="M313.1,-445.79C342.19,-440.75 387.04,-427.96 408,-396 420.43,-377.05 411.99,-351.74 402.01,-332.95"/>
<polygon fill="grey" stroke="grey" stroke-width="2" points="404.92,-330.99 396.92,-324.05 398.85,-334.47 404.92,-330.99"/>
</g>
<!-- 14 -->
<g id="node14" class="node">
<title>14</title>
<path fill="none" stroke="#bed856" stroke-width="2" d="M386.5,-396C386.5,-396 279.5,-396 279.5,-396 273.5,-396 267.5,-390 267.5,-384 267.5,-384 267.5,-372 267.5,-372 267.5,-366 273.5,-360 279.5,-360 279.5,-360 386.5,-360 386.5,-360 392.5,-360 398.5,-366 398.5,-372 398.5,-372 398.5,-384 398.5,-384 398.5,-390 392.5,-396 386.5,-396"/>
<text text-anchor="middle" x="333" y="-375.5" font-family="sans" font-size="10.00">trinity_abundance_prep</text>
</g>
<!-- 2&#45;&gt;14 -->
<g id="edge20" class="edge">
<title>2&#45;&gt;14</title>
<path fill="none" stroke="grey" stroke-width="2" d="M297.62,-431.7C303.14,-423.47 309.85,-413.48 315.93,-404.42"/>
<polygon fill="grey" stroke="grey" stroke-width="2" points="318.85,-406.36 321.52,-396.1 313.04,-402.46 318.85,-406.36"/>
</g>
<!-- 15 -->
<g id="node15" class="node">
<title>15</title>
<path fill="none" stroke="#d8a456" stroke-width="2" d="M463,-252C463,-252 365,-252 365,-252 359,-252 353,-246 353,-240 353,-240 353,-228 353,-228 353,-222 359,-216 365,-216 365,-216 463,-216 463,-216 469,-216 475,-222 475,-228 475,-228 475,-240 475,-240 475,-246 469,-252 463,-252"/>
<text text-anchor="middle" x="414" y="-231.5" font-family="sans" font-size="10.00">abundance_to_matrix</text>
</g>
<!-- 2&#45;&gt;15 -->
<g id="edge21" class="edge">
<title>2&#45;&gt;15</title>
<path fill="none" stroke="grey" stroke-width="2" d="M313.27,-445.87C344.61,-440.83 395.49,-427.98 425,-396 458.16,-360.06 459.12,-335.11 446,-288 443.33,-278.42 438.41,-268.84 433.22,-260.51"/>
<polygon fill="grey" stroke="grey" stroke-width="2" points="436.02,-258.41 427.56,-252.03 430.2,-262.29 436.02,-258.41"/>
</g>
<!-- 2&#45;&gt;16 -->
<g id="edge24" class="edge">
<title>2&#45;&gt;16</title>
<path fill="none" stroke="grey" stroke-width="2" d="M258.87,-448.79C219.39,-446.98 146.24,-437.77 104,-396 87.63,-379.81 81.12,-354.04 78.56,-334.39"/>
<polygon fill="grey" stroke="grey" stroke-width="2" points="82.02,-333.79 77.51,-324.2 75.06,-334.51 82.02,-333.79"/>
</g>
<!-- 2&#45;&gt;17 -->
<g id="edge26" class="edge">
<title>2&#45;&gt;17</title>
<path fill="none" stroke="grey" stroke-width="2" d="M259.9,-431.87C247.66,-422.6 233.86,-410.15 225,-396 213.29,-377.29 207.23,-352.91 204.13,-334.39"/>
<polygon fill="grey" stroke="grey" stroke-width="2" points="207.56,-333.64 202.63,-324.26 200.63,-334.66 207.56,-333.64"/>
</g>
<!-- 19 -->
<g id="node19" class="node">
<title>19</title>
<path fill="none" stroke="#d86e56" stroke-width="2" d="M456,-180C456,-180 398,-180 398,-180 392,-180 386,-174 386,-168 386,-168 386,-156 386,-156 386,-150 392,-144 398,-144 398,-144 456,-144 456,-144 462,-144 468,-150 468,-156 468,-156 468,-168 468,-168 468,-174 462,-180 456,-180"/>
<text text-anchor="middle" x="427" y="-159.5" font-family="sans" font-size="10.00">contig_exn50</text>
</g>
<!-- 2&#45;&gt;19 -->
<g id="edge28" class="edge">
<title>2&#45;&gt;19</title>
<path fill="none" stroke="grey" stroke-width="2" d="M313.15,-448.18C349.9,-445.55 414.99,-435.23 451,-396 506,-336.08 516.49,-290.56 484,-216 479.07,-204.68 470.39,-194.68 461.27,-186.51"/>
<polygon fill="grey" stroke="grey" stroke-width="2" points="463.5,-183.81 453.58,-180.09 459.01,-189.19 463.5,-183.81"/>
</g>
<!-- 3 -->
<g id="node3" class="node">
<title>3</title>
<path fill="none" stroke="#a7d856" stroke-width="2" d="M392,-684C392,-684 362,-684 362,-684 356,-684 350,-678 350,-672 350,-672 350,-660 350,-660 350,-654 356,-648 362,-648 362,-648 392,-648 392,-648 398,-648 404,-654 404,-660 404,-660 404,-672 404,-672 404,-678 398,-684 392,-684"/>
<text text-anchor="middle" x="377" y="-663.5" font-family="sans" font-size="10.00">split</text>
</g>
<!-- 3&#45;&gt;2 -->
<g id="edge4" class="edge">
<title>3&#45;&gt;2</title>
<path fill="none" stroke="grey" stroke-width="2" d="M374.53,-647.95C369.52,-617.35 356.18,-551.83 328,-504 322.31,-494.34 315.02,-484.52 308.12,-475.99"/>
<polygon fill="grey" stroke="grey" stroke-width="2" points="310.77,-473.71 301.68,-468.26 305.39,-478.19 310.77,-473.71"/>
</g>
<!-- 9 -->
<g id="node9" class="node">
<title>9</title>
<path fill="none" stroke="#56d88a" stroke-width="2" d="M337,-612C337,-612 307,-612 307,-612 301,-612 295,-606 295,-600 295,-600 295,-588 295,-588 295,-582 301,-576 307,-576 307,-576 337,-576 337,-576 343,-576 349,-582 349,-588 349,-588 349,-600 349,-600 349,-606 343,-612 337,-612"/>
<text text-anchor="middle" x="322" y="-591.5" font-family="sans" font-size="10.00">merge</text>
</g>
<!-- 3&#45;&gt;9 -->
<g id="edge10" class="edge">
<title>3&#45;&gt;9</title>
<path fill="none" stroke="grey" stroke-width="2" d="M363.4,-647.7C356.88,-639.39 348.93,-629.28 341.75,-620.14"/>
<polygon fill="grey" stroke="grey" stroke-width="2" points="344.37,-617.81 335.44,-612.1 338.87,-622.13 344.37,-617.81"/>
</g>
<!-- 3&#45;&gt;13 -->
<g id="edge19" class="edge">
<title>3&#45;&gt;13</title>
<path fill="none" stroke="grey" stroke-width="2" d="M404.08,-655.82C450.66,-638.12 541,-594.56 541,-523 541,-523 541,-523 541,-449 541,-391.61 482.55,-351.27 437.2,-328.62"/>
<polygon fill="grey" stroke="grey" stroke-width="2" points="438.57,-325.39 428.04,-324.18 435.52,-331.69 438.57,-325.39"/>
</g>
<!-- 4 -->
<g id="node4" class="node">
<title>4</title>
<path fill="none" stroke="#56d8a2" stroke-width="2" d="M392,-756C392,-756 362,-756 362,-756 356,-756 350,-750 350,-744 350,-744 350,-732 350,-732 350,-726 356,-720 362,-720 362,-720 392,-720 392,-720 398,-720 404,-726 404,-732 404,-732 404,-744 404,-744 404,-750 398,-756 392,-756"/>
<text text-anchor="middle" x="377" y="-735.5" font-family="sans" font-size="10.00">trim</text>
</g>
<!-- 4&#45;&gt;3 -->
<g id="edge5" class="edge">
<title>4&#45;&gt;3</title>
<path fill="none" stroke="grey" stroke-width="2" d="M377,-719.7C377,-711.98 377,-702.71 377,-694.11"/>
<polygon fill="grey" stroke="grey" stroke-width="2" points="380.5,-694.1 377,-684.1 373.5,-694.1 380.5,-694.1"/>
</g>
<!-- 5 -->
<g id="node5" class="node">
<title>5</title>
<path fill="none" stroke="#70d856" stroke-width="2" d="M392,-828C392,-828 362,-828 362,-828 356,-828 350,-822 350,-816 350,-816 350,-804 350,-804 350,-798 356,-792 362,-792 362,-792 392,-792 392,-792 398,-792 404,-798 404,-804 404,-804 404,-816 404,-816 404,-822 398,-828 392,-828"/>
<text text-anchor="middle" x="377" y="-807.5" font-family="sans" font-size="10.00">decon</text>
</g>
<!-- 5&#45;&gt;4 -->
<g id="edge6" class="edge">
<title>5&#45;&gt;4</title>
<path fill="none" stroke="grey" stroke-width="2" d="M377,-791.7C377,-783.98 377,-774.71 377,-766.11"/>
<polygon fill="grey" stroke="grey" stroke-width="2" points="380.5,-766.1 377,-756.1 373.5,-766.1 380.5,-766.1"/>
</g>
<!-- 6 -->
<g id="node6" class="node">
<title>6</title>
<path fill="none" stroke="#568ad8" stroke-width="2" d="M392,-900C392,-900 362,-900 362,-900 356,-900 350,-894 350,-888 350,-888 350,-876 350,-876 350,-870 356,-864 362,-864 362,-864 392,-864 392,-864 398,-864 404,-870 404,-876 404,-876 404,-888 404,-888 404,-894 398,-900 392,-900"/>
<text text-anchor="middle" x="377" y="-879.5" font-family="sans" font-size="10.00">repair</text>
</g>
<!-- 6&#45;&gt;5 -->
<g id="edge7" class="edge">
<title>6&#45;&gt;5</title>
<path fill="none" stroke="grey" stroke-width="2" d="M377,-863.7C377,-855.98 377,-846.71 377,-838.11"/>
<polygon fill="grey" stroke="grey" stroke-width="2" points="380.5,-838.1 377,-828.1 373.5,-838.1 380.5,-838.1"/>
</g>
<!-- 7 -->
<g id="node7" class="node">
<title>7</title>
<path fill="none" stroke="#56a2d8" stroke-width="2" d="M412.5,-972C412.5,-972 341.5,-972 341.5,-972 335.5,-972 329.5,-966 329.5,-960 329.5,-960 329.5,-948 329.5,-948 329.5,-942 335.5,-936 341.5,-936 341.5,-936 412.5,-936 412.5,-936 418.5,-936 424.5,-942 424.5,-948 424.5,-948 424.5,-960 424.5,-960 424.5,-966 418.5,-972 412.5,-972"/>
<text text-anchor="middle" x="377" y="-951.5" font-family="sans" font-size="10.00">check_barcodes</text>
</g>
<!-- 7&#45;&gt;6 -->
<g id="edge8" class="edge">
<title>7&#45;&gt;6</title>
<path fill="none" stroke="grey" stroke-width="2" d="M377,-935.7C377,-927.98 377,-918.71 377,-910.11"/>
<polygon fill="grey" stroke="grey" stroke-width="2" points="380.5,-910.1 377,-900.1 373.5,-910.1 380.5,-910.1"/>
</g>
<!-- 8 -->
<g id="node8" class="node">
<title>8</title>
<path fill="none" stroke="#d88d56" stroke-width="2" d="M289.5,-540C289.5,-540 194.5,-540 194.5,-540 188.5,-540 182.5,-534 182.5,-528 182.5,-528 182.5,-516 182.5,-516 182.5,-510 188.5,-504 194.5,-504 194.5,-504 289.5,-504 289.5,-504 295.5,-504 301.5,-510 301.5,-516 301.5,-516 301.5,-528 301.5,-528 301.5,-534 295.5,-540 289.5,-540"/>
<text text-anchor="middle" x="242" y="-519.5" font-family="sans" font-size="10.00">join_merged_with_r1</text>
</g>
<!-- 8&#45;&gt;2 -->
<g id="edge3" class="edge">
<title>8&#45;&gt;2</title>
<path fill="none" stroke="grey" stroke-width="2" d="M252.88,-503.7C257.99,-495.56 264.2,-485.69 269.84,-476.7"/>
<polygon fill="grey" stroke="grey" stroke-width="2" points="272.89,-478.43 275.25,-468.1 266.96,-474.71 272.89,-478.43"/>
</g>
<!-- 9&#45;&gt;2 -->
<g id="edge2" class="edge">
<title>9&#45;&gt;2</title>
<path fill="none" stroke="grey" stroke-width="2" d="M321.18,-575.97C319.96,-557.83 317.01,-528.43 310,-504 307.44,-495.07 303.61,-485.71 299.77,-477.39"/>
<polygon fill="grey" stroke="grey" stroke-width="2" points="302.82,-475.66 295.32,-468.18 296.52,-478.71 302.82,-475.66"/>
</g>
<!-- 9&#45;&gt;8 -->
<g id="edge9" class="edge">
<title>9&#45;&gt;8</title>
<path fill="none" stroke="grey" stroke-width="2" d="M302.22,-575.7C292.25,-566.97 279.99,-556.24 269.14,-546.75"/>
<polygon fill="grey" stroke="grey" stroke-width="2" points="271.38,-544.06 261.55,-540.1 266.77,-549.32 271.38,-544.06"/>
</g>
<!-- 10 -->
<g id="node10" class="node">
<title>10</title>
<path fill="none" stroke="#56d8c1" stroke-width="2" d="M171,-36C171,-36 141,-36 141,-36 135,-36 129,-30 129,-24 129,-24 129,-12 129,-12 129,-6 135,0 141,0 141,0 171,0 171,0 177,0 183,-6 183,-12 183,-12 183,-24 183,-24 183,-30 177,-36 171,-36"/>
<text text-anchor="middle" x="156" y="-15.5" font-family="sans" font-size="10.00">busco</text>
</g>
<!-- 11&#45;&gt;10 -->
<g id="edge11" class="edge">
<title>11&#45;&gt;10</title>
<path fill="none" stroke="grey" stroke-width="2" d="M156,-71.7C156,-63.98 156,-54.71 156,-46.11"/>
<polygon fill="grey" stroke="grey" stroke-width="2" points="159.5,-46.1 156,-36.1 152.5,-46.1 159.5,-46.1"/>
</g>
<!-- 12&#45;&gt;11 -->
<g id="edge13" class="edge">
<title>12&#45;&gt;11</title>
<path fill="none" stroke="grey" stroke-width="2" d="M273.84,-143.88C252.61,-134.35 225.99,-122.41 203.43,-112.28"/>
<polygon fill="grey" stroke="grey" stroke-width="2" points="204.59,-108.97 194.04,-108.07 201.73,-115.36 204.59,-108.97"/>
</g>
<!-- 13&#45;&gt;12 -->
<g id="edge15" class="edge">
<title>13&#45;&gt;12</title>
<path fill="none" stroke="grey" stroke-width="2" d="M369.47,-287.82C361.09,-277.89 351.05,-264.85 344,-252 333.12,-232.17 324.69,-207.92 319.21,-189.74"/>
<polygon fill="grey" stroke="grey" stroke-width="2" points="322.56,-188.7 316.41,-180.07 315.83,-190.65 322.56,-188.7"/>
</g>
<!-- 13&#45;&gt;15 -->
<g id="edge22" class="edge">
<title>13&#45;&gt;15</title>
<path fill="none" stroke="grey" stroke-width="2" d="M392.17,-287.7C395.43,-279.81 399.37,-270.3 403,-261.55"/>
<polygon fill="grey" stroke="grey" stroke-width="2" points="406.32,-262.68 406.91,-252.1 399.85,-260 406.32,-262.68"/>
</g>
<!-- 14&#45;&gt;13 -->
<g id="edge18" class="edge">
<title>14&#45;&gt;13</title>
<path fill="none" stroke="grey" stroke-width="2" d="M345.85,-359.7C352.03,-351.39 359.54,-341.28 366.32,-332.14"/>
<polygon fill="grey" stroke="grey" stroke-width="2" points="369.14,-334.22 372.29,-324.1 363.52,-330.04 369.14,-334.22"/>
</g>
<!-- 15&#45;&gt;12 -->
<g id="edge16" class="edge">
<title>15&#45;&gt;12</title>
<path fill="none" stroke="grey" stroke-width="2" d="M389.05,-215.88C375.96,-206.89 359.74,-195.76 345.56,-186.03"/>
<polygon fill="grey" stroke="grey" stroke-width="2" points="347.27,-182.96 337.05,-180.19 343.31,-188.73 347.27,-182.96"/>
</g>
<!-- 15&#45;&gt;19 -->
<g id="edge29" class="edge">
<title>15&#45;&gt;19</title>
<path fill="none" stroke="grey" stroke-width="2" d="M417.21,-215.7C418.65,-207.98 420.37,-198.71 421.96,-190.11"/>
<polygon fill="grey" stroke="grey" stroke-width="2" points="425.44,-190.58 423.82,-180.1 418.56,-189.3 425.44,-190.58"/>
</g>
<!-- 18 -->
<g id="node18" class="node">
<title>18</title>
<path fill="none" stroke="#d85656" stroke-width="2" d="M450.5,-108C450.5,-108 403.5,-108 403.5,-108 397.5,-108 391.5,-102 391.5,-96 391.5,-96 391.5,-84 391.5,-84 391.5,-78 397.5,-72 403.5,-72 403.5,-72 450.5,-72 450.5,-72 456.5,-72 462.5,-78 462.5,-84 462.5,-84 462.5,-96 462.5,-96 462.5,-102 456.5,-108 450.5,-108"/>
<text text-anchor="middle" x="427" y="-87.5" font-family="sans" font-size="10.00">plot_exn50</text>
</g>
<!-- 19&#45;&gt;18 -->
<g id="edge27" class="edge">
<title>19&#45;&gt;18</title>
<path fill="none" stroke="grey" stroke-width="2" d="M427,-143.7C427,-135.98 427,-126.71 427,-118.11"/>
<polygon fill="grey" stroke="grey" stroke-width="2" points="430.5,-118.1 427,-108.1 423.5,-118.1 430.5,-118.1"/>
</g>
</g>
</svg>
